<?xml version="1.0" encoding="utf-8"?>
<!-- Generator: Adobe Illustrator 17.1.0, SVG Export Plug-In . SVG Version: 6.00 Build 0)  -->
<!DOCTYPE svg PUBLIC "-//W3C//DTD SVG 1.1//EN" "http://www.w3.org/Graphics/SVG/1.1/DTD/svg11.dtd">
<svg version="1.1" id="Layer_1" xmlns="http://www.w3.org/2000/svg" xmlns:xlink="http://www.w3.org/1999/xlink" x="0px" y="0px"
	 viewBox="0 0 244 357.8" enable-background="new 0 0 244 357.8" xml:space="preserve">
<g>
	<g id="XMLID_1_">
		<g>
			<polygon fill="#E1A800" points="69.2,243 58.6,261.5 44.5,224.1 69.2,243 			"/>
			<polygon fill="#E9B200" points="35.1,157.8 48.2,171.7 48.1,171.7 37.2,193.5 34.8,169.6 35.1,157.8 			"/>
			<polygon fill="#F2BE0A" points="35.1,157.8 58.5,146.2 48.2,171.7 			"/>
			<polygon fill="#F4BA01" points="74.2,284.1 97.4,263.8 96.2,308.4 			"/>
			<polygon fill="#E9B200" points="69.2,243 44.5,224.1 58.5,224.9 			"/>
			<polygon fill="#FAC100" points="69.2,243 97.4,263.7 58.6,261.5 			"/>
			<polygon fill="#DDAD0D" points="48.2,171.7 65.2,189.7 37.2,193.5 48.1,171.7 			"/>
			<polygon fill="#F2BB00" points="65.2,189.7 48.2,171.7 58.5,146.2 			"/>
			<polygon fill="#DDAD0D" points="58.5,146.2 35.1,157.8 35.1,157.8 35.8,128.9 36.3,127.4 			"/>
			<polygon fill="#E3AE00" points="65.2,189.7 44.5,224.1 37.2,193.5 			"/>
			<polygon fill="#EAB300" points="57.7,223.5 58.5,224.9 44.5,224.1 65.2,189.7 			"/>
			<polygon fill="#F0BA00" points="57.7,223.5 65.2,189.7 78.9,226 58.5,224.9 			"/>
			<polygon fill="#F0B800" points="78.9,226 69.3,242.9 69.2,243 58.5,224.9 			"/>
			<polygon fill="#EEB300" points="65.2,189.7 58.5,146.2 76,187 			"/>
			<polygon fill="#F9C300" points="76,187 58.5,146.2 90.5,161.2 			"/>
			<polygon fill="#EAAE00" points="97.4,263.8 74.2,284.1 58.6,261.5 97.4,263.7 97.4,263.7 			"/>
			<polygon fill="#EAAE00" points="97.4,263.7 97.4,263.7 97.4,263.7 			"/>
			<polygon fill="#F3B900" points="97.5,263.8 97.4,263.7 97.4,263.7 97.5,263.7 			"/>
			<polygon fill="#FAC100" points="97.5,263.7 97.5,263.7 97.5,263.7 			"/>
			<polygon fill="#F3B900" points="97.5,263.7 118.2,289.2 118.1,289.3 96.2,308.4 97.4,263.8 97.4,263.7 97.5,263.8 97.5,263.7 			
				"/>
			<polygon fill="#F1B600" points="76,187 78.9,226 65.2,189.7 			"/>
			<polygon fill="#F4BA00" points="91.2,223.7 78.9,226 76,187 			"/>
			<polygon fill="#FDC500" points="76,187 96.9,193.1 97,193.6 97,193.9 91.2,223.7 			"/>
			<polygon fill="#FABF01" points="114.8,311.4 122.9,333.1 96.2,308.4 113.9,311.2 			"/>
			<polygon fill="#F9C847" points="48.8,87.4 54.9,99.6 54.9,99.6 36.9,125.4 			"/>
			<polygon fill="#F8C84C" points="75.8,83 54.9,99.6 48.8,87.4 			"/>
			<polygon fill="#F9BE02" points="78.9,226 91.2,223.7 108.5,228.8 			"/>
			<polygon fill="#F8C545" points="36.9,125.4 54.9,99.6 64.7,118.9 36.4,126.8 			"/>
			<polygon fill="#F6C42D" points="64.7,118.9 58.5,146.2 36.3,127.4 36.4,126.8 			"/>
			<polygon fill="#F5B901" points="118.1,289.3 114.8,311.4 114.8,311.4 113.9,311.2 96.2,308.4 			"/>
			<polygon fill="#FAC100" points="128.7,301.9 114.8,311.4 118.1,289.3 			"/>
			<polygon fill="#F5B901" points="129.5,302.8 128.7,301.9 128.7,301.9 			"/>
			<polygon fill="#F5B901" points="140,315.4 114.8,311.4 114.8,311.4 128.7,301.9 129.5,302.8 			"/>
			<polygon fill="#FFC801" points="99.5,179.2 97.1,193.2 96.9,193.1 76,187 			"/>
			<polygon fill="#FFCB03" points="91.2,223.7 97,193.9 97,193.6 108.5,228.8 108.5,228.8 			"/>
			<polygon fill="#FAC100" points="108.3,229.5 126.9,265.4 97.5,263.7 97.5,263.7 97.5,263.7 108.3,229.5 			"/>
			<polygon fill="#FAC100" points="69.3,242.9 78.9,226 108.5,228.8 108.5,228.8 			"/>
			<polygon fill="#F4BA01" points="97.4,263.7 69.2,243 69.3,242.9 108.5,228.8 108.3,229.5 97.5,263.7 97.4,263.6 97.4,263.7 			
				"/>
			<polygon fill="#F4C343" points="62.6,70.9 75.8,83 48.8,87.4 			"/>
			<polygon fill="#FCCC00" points="76,187 90.5,161.2 99.6,178.8 99.5,179.2 			"/>
			<polygon fill="#FBCC36" points="89.4,59.7 75.8,83 62.6,70.9 			"/>
			<polygon fill="#F8BB00" points="114.8,311.4 140,315.4 140.3,315.4 122.9,333.1 			"/>
			<polygon fill="#EEB101" points="164.3,301.4 140.3,315.4 140,315.4 129.5,302.8 128.7,301.9 164.6,301.2 			"/>
			<polygon fill="#FDC204" points="122.9,333.1 140.3,315.4 151.4,344.1 			"/>
			<polygon fill="#FAC100" points="126.9,265.4 118.2,289.2 97.5,263.7 			"/>
			<polygon fill="#FFC501" points="144.4,282.1 118.2,289.2 126.9,265.4 			"/>
			<polygon fill="#FDDF59" points="126.9,265.4 140.7,258.1 141.4,258.9 144.4,282.1 			"/>
			<polygon fill="#FEDD58" points="97.1,193.2 108.7,196.5 108.5,228.8 97,193.6 			"/>
			<polygon fill="#FEDE67" points="99.5,179.2 99.7,179.1 108.7,196.6 108.7,196.5 97.1,193.2 			"/>
			<polygon fill="#FDE561" points="110.8,230.6 108.5,228.8 108.7,196.5 108.7,196.6 120.6,225.9 130.2,246.4 			"/>
			<polygon fill="#F1BF3C" points="64.7,118.9 54.9,99.6 54.9,99.6 75.8,83 			"/>
			<polygon fill="#F5C348" points="88.2,121.7 75.8,83 100.9,100.2 			"/>
			<polygon fill="#E9B21A" points="58.5,146.2 64.7,118.9 88.2,121.7 88.2,121.7 			"/>
			<polygon fill="#F4BF01" points="58.5,146.2 88.2,121.7 88.2,121.8 90.5,161.2 			"/>
			<polygon fill="#E7B113" points="88.2,121.7 64.7,118.9 75.8,83 88.2,121.7 			"/>
			<polygon fill="#FEE37A" points="88.2,121.8 102.9,159.5 90.5,161.2 			"/>
			<polygon fill="#FEDC78" points="104,132.3 102.9,159.5 88.2,121.8 88.2,121.7 			"/>
			<polygon fill="#F8C95D" points="75.8,83 104.8,85.4 100.9,100.2 			"/>
			<polygon fill="#FFE173" points="99.6,178.8 90.5,161.2 102.9,159.5 			"/>
			<polygon fill="#FEE37A" points="99.6,178.8 102.9,159.5 108.7,196.6 99.7,179.1 			"/>
			<polygon fill="#FFE466" points="108.5,228.8 110.8,230.6 130.2,246.4 126.9,265.4 108.3,229.5 108.3,229.5 			"/>
			<polygon fill="#FEE370" points="140.7,258.1 126.9,265.4 130.2,246.4 			"/>
			<polygon fill="#F5B900" points="118.2,289.2 144.4,282.1 128.7,301.8 128.7,301.9 128.7,301.9 118.1,289.3 			"/>
			<polygon fill="#F9BE02" points="144.4,282.1 164.6,301.2 128.7,301.9 128.7,301.8 			"/>
			<polygon fill="#FEDF51" points="144.4,282.1 141.4,258.9 145,263 163.3,283.2 			"/>
			<polygon fill="#FEDE4D" points="164.6,301.2 144.4,282.1 163.3,283.2 			"/>
			<polygon fill="#FCC534" points="88.2,121.7 88.2,121.7 100.9,100.2 104,132.3 			"/>
			<polygon fill="#F8BB00" points="171.3,334.2 183,345.2 177.7,344.8 151.4,344.1 171.2,333.8 			"/>
			<polygon fill="#F7C91E" points="91,62.4 89.4,59.7 104.5,50.7 			"/>
			<polygon fill="#F1C131" points="91,62.4 75.8,83 89.4,59.7 			"/>
			<polygon fill="#F8D071" points="105.6,77.4 75.8,83 91,62.4 			"/>
			<polygon fill="#F1B401" points="140.3,315.4 164.3,301.4 164.5,301.5 151.4,344.1 			"/>
			<polygon fill="#F9BE02" points="151.4,344.1 164.5,301.5 164.8,301.7 171.2,333.8 			"/>
			<path fill="#FCDC55" d="M191,309.1l0.1,14.2l-26.4-21.6l-0.1-0.5L191,309.1C191,309.1,191,309.1,191,309.1z"/>
			<path fill="#FFDE43" d="M191,309l-26.3-7.9l14.2-2.3l2.4,2.4C181.2,301.3,188.9,307.2,191,309z"/>
			<polygon fill="#FFDE43" points="164.6,301.2 163.3,283.2 178.8,298.9 			"/>
			<polygon fill="#FDDB81" points="111.4,92.8 100.9,100.2 104.8,85.4 111.4,92.4 			"/>
			<polygon fill="#F9CF6D" points="75.8,83 105.6,77.4 105.7,77.4 105.7,77.4 104.8,85.4 			"/>
			<polygon fill="#F8D579" points="104.8,85.4 105.7,77.4 105.8,77.3 113.9,75.5 111.4,92.4 			"/>
			<polygon fill="#FDDD88" points="100.9,100.2 111.4,92.8 110.5,98.4 104,132.3 			"/>
			<polygon fill="#DDAD0D" points="104.5,50.7 109.7,64.4 91,62.4 			"/>
			<polygon fill="#D3A535" points="109.7,64.4 104.5,50.7 121.7,59 			"/>
			<polygon fill="#D5A334" points="121.7,59 104.5,50.7 118.7,35.3 			"/>
			<polygon fill="#D79F00" points="91,62.4 109.7,64.4 105.8,77.3 105.7,77.4 105.7,77.4 105.6,77.4 			"/>
			<polygon fill="#E9C04E" points="116.6,69.9 105.8,77.3 109.7,64.4 116.6,69.7 			"/>
			<polygon fill="#F6B900" points="191.3,323.4 183.3,345.2 183,345.2 171.3,334.2 171.2,333.8 			"/>
			<polygon fill="#F3B200" points="199.5,346.3 183.3,345.2 191.3,323.4 			"/>
			<polygon fill="#F3B701" points="191.3,323.4 171.2,333.8 164.8,301.7 191.1,323.3 191.3,323.3 			"/>
			<polygon fill="#F3B701" points="203,336 191.3,323.4 191.3,323.3 211,327.5 204.4,331.7 			"/>
			<polygon fill="#EBAB01" points="191.3,323.4 203,336 199.7,346.3 199.5,346.3 			"/>
			<polygon fill="#E3BA3E" points="105.8,77.3 116.6,69.9 113.9,75.5 			"/>
			<path fill="#FED641" d="M211,327.5l-19.7-4.1l-0.2,0l-0.1-14.2c0.2,0.2,0.3,0.3,0.4,0.4C192.2,310.5,211,327.5,211,327.5z"/>
			<polygon fill="#7F4730" points="203,336 207.6,341 199.7,346.3 199.7,346.3 			"/>
			<polygon fill="#E6BB4B" points="109.7,64.4 121.7,59 116.6,69.7 			"/>
			<polygon fill="#B17536" points="207.7,340.8 207.6,341 203,336 204.4,331.7 207.6,340.8 			"/>
			<polygon fill="#A67A55" points="211,327.5 207.7,340.8 207.6,340.8 204.4,331.7 			"/>
			<polygon fill="#ECC260" points="121.7,59 118.7,35.3 138.6,47.5 			"/>
			<polygon fill="#8D4E25" points="118.7,35.3 136.3,29.9 138.6,47.5 			"/>
			<polygon fill="#644034" points="133.8,11.3 136.2,29.5 136.3,29.9 118.7,35.3 124.6,24.2 			"/>
			<polygon fill="#7F4730" points="136.3,29.9 154.6,24.3 138.6,47.5 			"/>
			<polygon fill="#7F4730" points="148.4,12.1 136.2,29.5 133.8,11.3 			"/>
			<polygon fill="#855837" points="154.6,24.3 136.3,29.9 136.2,29.5 148.4,12.1 			"/>
		</g>
	</g>
</g>
</svg>
